# xmcd CD database file
#
# Track frame offsets:
#	150
#	17720
#	34846
#
# Disc length: 698 seconds
#
# Revision: 3
# Processed by: cddbd v1.5.2PL0 Copyright (c) Steve Scherf et al.
# Submitted via: CDex 1.70beta2
#
DISCID=1b02b803
DTITLE=モ−ニング娘。 - 浪漫 〜My Dear Boy〜
DYEAR=2004
DGENRE=JPop
TTITLE0=浪漫 ～My Dear Boy～
TTITLE1=ファインエモーション！
TTITLE2=浪漫 ～My Dear Boy～ (Instrumental)
EXTD=YEAR: 2004
EXTT0=
EXTT1=
EXTT2=
PLAYORDER=
